<svg xmlns="http://www.w3.org/2000/svg" viewBox="0 0 32 32" width="32" height="32">
  <circle cx="16" cy="16" r="15" fill="#1e293b" stroke="#3b82f6" stroke-width="2"/>
  <g fill="#3b82f6" opacity="0.9">
    <rect x="6" y="8" width="4" height="2" rx="0.5"/>
    <rect x="11" y="8" width="4" height="2" rx="0.5"/>
    <rect x="16" y="8" width="4" height="2" rx="0.5"/>
    <rect x="21" y="8" width="4" height="2" rx="0.5"/>
    <rect x="6" y="12" width="4" height="2" rx="0.5" opacity="0.7"/>
    <rect x="11" y="12" width="4" height="2" rx="0.5" opacity="0.7"/>
    <rect x="16" y="12" width="4" height="2" rx="0.5" opacity="0.7"/>
    <rect x="21" y="12" width="4" height="2" rx="0.5" opacity="0.7"/>
    <rect x="6" y="16" width="4" height="2" rx="0.5" opacity="0.5"/>
    <rect x="11" y="16" width="4" height="2" rx="0.5" opacity="0.5"/>
    <rect x="16" y="16" width="4" height="2" rx="0.5" opacity="0.5"/>
    <rect x="21" y="16" width="4" height="2" rx="0.5" opacity="0.5"/>
    <rect x="6" y="20" width="4" height="2" rx="0.5" opacity="0.3"/>
    <rect x="11" y="20" width="4" height="2" rx="0.5" opacity="0.3"/>
    <rect x="16" y="20" width="4" height="2" rx="0.5" opacity="0.3"/>
    <rect x="21" y="20" width="4" height="2" rx="0.5" opacity="0.3"/>
  </g>
  <g fill="#10b981" opacity="0.8">
    <polygon points="24,24 26,22 28,24 26,26" />
    <circle cx="26" cy="24" r="0.5"/>
  </g>
</svg> 